<svg id="Capa_1" data-name="Capa 1" xmlns="http://www.w3.org/2000/svg" viewBox="0 0 462.14 462.42"><defs><style>.cls-1{fill:#3f3f3f;}.cls-2{fill:#1646b2;}.cls-3{fill:#fefefe;}.cls-4{fill:#f5edf6;}.cls-5{fill:none;}</style></defs><path class="cls-1" d="M294-.31a1.61,1.61,0,0,1,1.89,1.43c.14,1.71-.47,4,.51,2-3.43,22.24-5.7,34.26-9.51,56.44-.85,5,.41,5.9,4.94,6.16,16.79,1,29.59,12.68,32.13,29,3.1,19.86-13.84,38.78-34,38.36-13-.27-25.95.19-38.92.07-2.6,0-2.79.6-2.75,2.93.15,9.08.13,18.16-.12,27.24-.11,4,2.32,4.76,5.31,5.69,21.36,6.59,36.55,20.22,45.5,40.65,3.55,8.12,6,16.58,2,25.38-2.78,6.18-11.08,10.83-17.81,11-10.48.19-9.94-2.79-10,9,0,8.91-.17,17.82-.26,26.73-1.92,7.51-.07,15.18-.91,22.72-.62,5.6.09,10.09,6.84,11A8,8,0,0,0,277,315c-3.79-.51-5.07,1.56-4.66,5.66s-.34,8.07.35,12.1c.63,3.69-1.44,4.67-6.2,4a209.11,209.11,0,0,0-62.49-.21c-6.26,1-9.2-.2-9.08-5.12.09-3.88.54-13.57,1.08-17.39.61-4.38-18,1-19.95,7,3.51-5.88,9.21-7.23,15.45-7.62.36,0,.73,0,1.1,0,1.48,0,2.87-.19,2.8-2.82-.24-9.6-.22-19.2-.3-28.81,0-10.05,0-20.11-.09-30.17,0-3.41.13-6.23-5.18-5.76-6.28.56-12.88,0-18.14-4.27-7.24-5.86-9-14.2-6.84-22.46,6.46-24.14,21.44-40.94,45.39-49.1,8-2.74,8.09-2.55,8.29-11.38.14-6.22.2-12.44.44-18.65a5.91,5.91,0,0,0-5.62-6.14c-12.43-.55-24.87-.68-37.3-.91-16.38-.31-30.14-10.89-32.91-27.48-3.58-21.5,11.29-39.39,33.61-39.95,3.13-.08,4.61,0,2.69-3.5a10.59,10.59,0,0,1-.9-3.79c-1.67-14-6-27.4-8-41.29-.44-3-2.56-13.69-2.6-16.88Zm-1.2,118.6c11.24-1.08,15.57-8.76,17-16.24,1.54-8.18-3.75-16.88-12.07-20.87-9.29-4.47-14.33-1.91-15.21,8.12-.31,3.57-1.55,4.27-4.88,4.11-6.63-.31-13.28-.09-19.92-.07l-67.06.23c-3,0-4.55-1.23-5-4.52-1.07-7.35-1.27-7.32-8.53-7.62-.16,0-.32-.07-.48-.07-11,.06-21.9,12.06-19.07,23.26,2.06,8.09,10.74,14.37,19.44,14.26,12.64-.17,25.28-.35,37.91,0,3.07.08,4.34-.8,5.55-3.27,4.8-9.8,19-11.71,24.4-2.48,3.16,5.44,6.46,6.26,11.56,5.82,2.09-.18,4.21.08,6.31,0C272.74,118.55,282.81,119.37,292.82,118.29ZM281.87,229.5c5.64-.87,7.67-3.77,6.43-7.82-5.1-16.62-15.45-28.74-31-36.56-6.66-3.35-8-3.15-12.39,2.73-6.2,8.35-19.38,8.17-23.73-.86-2.5-5.18-5.37-4.51-9.24-2.91-15.79,6.55-26.41,18-32.3,34-3.05,8.28-.45,11.83,8.27,11.42a19,19,0,0,1,2.92.1c3,.34,4.33-.28,4.15-3.94-.49-10.43-.28-10.44,9.94-10.18.49,0,1-.06,1.47-.06l61.24-.23c3.11,0,4.87,1.39,4.83,4.66,0,1.94-.11,3.9,0,5.83s.49,3.72,2.93,3.8S280.33,229.49,281.87,229.5Z" transform="translate(0 0.33)"/><path class="cls-2" d="M285,319a4.51,4.51,0,0,1-3.12-2.07,2.47,2.47,0,0,0-1.25-1.11,11,11,0,0,0-1.7-.5v0c-6.75-.86-7.46-5.35-6.84-11,.84-7.54-1-15.21.91-22.72q47.19.08,94.38.14c23.31,0,46.62-.06,69.93.08,15.06.09,24.79,10.47,24.73,25.62-.11,29-.05,58.05-.06,87.07,0,.65.1,1.3.16,2-5.75,2.74-11.86,1.14-17.74,1.16q-90.52.25-181,.09-83.67,0-167.32-.17-47.94,0-95.89-.06-.06-34-.13-68.07c0-7.19,0-14.37,0-21.55-.11-16.08,9.67-26.09,25.74-26.11q84.68-.06,169.36,0c.08,9.61.06,19.21.3,28.81.08,3.29-2.12,2.73-3.9,2.84-6.24.39-11.94,1.74-15.45,7.62a5.23,5.23,0,0,0-2.18,3.56,1.66,1.66,0,0,0-.67,1.94,10.46,10.46,0,0,0-1.08,6.14c.67,11.46,8.7,18.15,21.66,18.13,15.46,0,30.91.06,46.37,0,11.39-.05,22.83.43,34.14-.59,14.69-1.33,20.56-20.23,11.24-29.72l-1-1.09h.07a3.09,3.09,0,0,0-1.95-1.85l-.21-.17q-.23-.25-.45-.48" transform="translate(0 0.33)"/><path class="cls-3" d="M292.82,118.29c-10,1.08-20.08.26-30.11.62-2.1.07-4.22-.19-6.31,0-5.1.44-8.4-.38-11.56-5.82-5.36-9.23-19.6-7.32-24.4,2.48-1.21,2.47-2.48,3.35-5.55,3.27-12.63-.3-25.27-.12-37.91,0-8.7.11-17.38-6.17-19.44-14.26-2.83-11.2,8.06-23.2,19.07-23.26.16,0,.32.07.48.07,7.26.3,7.46.27,8.53,7.62.48,3.29,2,4.53,5,4.52l67.06-.23c6.64,0,13.29-.24,19.92.07,3.33.16,4.57-.54,4.88-4.11.88-10,5.92-12.59,15.21-8.12,8.32,4,13.61,12.69,12.07,20.87C308.39,109.53,304.06,117.21,292.82,118.29Z" transform="translate(0 0.33)"/><path class="cls-3" d="M281.87,229.5c-1.54,0-4,0-6.4,0s-2.79-2-2.93-3.8-.06-3.89,0-5.83c0-3.27-1.72-4.67-4.83-4.66l-61.24.23c-.49,0-1,.07-1.47.06-10.22-.26-10.43-.25-9.94,10.18.18,3.66-1.18,4.28-4.15,3.94a19,19,0,0,0-2.92-.1c-8.72.41-11.32-3.14-8.27-11.42,5.89-16,16.51-27.43,32.3-34,3.87-1.6,6.74-2.27,9.24,2.91,4.35,9,17.53,9.21,23.73.86,4.38-5.88,5.73-6.08,12.39-2.73,15.51,7.82,25.86,19.94,31,36.56C289.54,225.73,287.51,228.63,281.87,229.5Z" transform="translate(0 0.33)"/><path class="cls-4" d="M285.53,320.45l-1-1.09Z" transform="translate(0 0.33)"/><path class="cls-1" d="M281,317" transform="translate(0 0.33)"/><path class="cls-5" d="M283.26,317.4a2.54,2.54,0,0,0-.86-.18.32.32,0,0,0-.17,0,.29.29,0,0,0-.12.26,1.82,1.82,0,0,0,.24.93,12.42,12.42,0,0,0,2,2.95,2.81,2.81,0,0,0,1.14.85.54.54,0,0,0,.43,0c.13-.07.2-.27.1-.37" transform="translate(0 0.33)"/><path class="cls-5" d="M289.63,322.88c-2.81-2-5.28-4.41-8.14-6.31" transform="translate(0 0.33)"/><path class="cls-5" d="M281.22,316.38A22,22,0,0,0,284.7,320a2.81,2.81,0,0,0,1.09.58.15.15,0,0,0,0-.17" transform="translate(0 0.33)"/><path class="cls-5" d="M279,314.86l3,1a10.81,10.81,0,0,1,2.51,1.1,5.41,5.41,0,0,1,2,2.56" transform="translate(0 0.33)"/><path class="cls-5" d="M281.62,317.19c1.13,1.28,3,1.67,4.41,2.46a8,8,0,0,1,2.13,1.94" transform="translate(0 0.33)"/><path class="cls-5" d="M283.63,317.56c.27,1.49,1.21,2.79,1.47,4.28" transform="translate(0 0.33)"/></svg>