<svg id="Capa_1" data-name="Capa 1" xmlns="http://www.w3.org/2000/svg" viewBox="0 0 462 408.19"><defs><style>.cls-1{fill:#b8b8c9;}.cls-2{fill:#1464a5;}.cls-3{fill:#a02d3e;}</style></defs><path class="cls-1" d="M295.46,210.09c-5.54-11.34-13.38-21.4-23.92-28.48a65.56,65.56,0,0,0-20-9.2c-7.21-1.84-14.54-1.35-21.91-1.35a92.73,92.73,0,0,0-14.87,1A46.83,46.83,0,0,0,197,178.5,87.9,87.9,0,0,0,171.09,203s-8.66,15.15-9.64,24.2c-.95,8.71,4.43,17.46,12.44,20.88,4.79,2,10.06,1.45,15.15,1.47,23.32,0,46.63.47,70,.05,7.84-.14,17.46.83,25.07-1.54,3.32-1,6.07-1.2,9-3.59A22.57,22.57,0,0,0,301.3,229C301.83,222.23,298.32,216,295.46,210.09Zm-13.37,23.56-91.91,1.57S169.91,239.16,177,222c0,0,11.16-30.31,38.58-36.22,0,0,.45,12.6,14.69,13.39,0,0,12.47,1.57,15.62-12.21,0,0,21.84.4,39.16,33.46C285,220.46,292.52,233.25,282.09,233.65Z" transform="translate(0 10.19)"/><path class="cls-2" d="M445.86,287h-429C7.91,287,.69,293.62.69,301.81v13.74H0V398H461.31V387.45a13.56,13.56,0,0,0,.69-4.28V301.81C462,293.62,454.77,287,445.86,287ZM288,328.8c0,10.4-9.18,18.83-20.5,18.83h-72c-11.32,0-20.5-8.43-20.5-18.83h0c0-10.4,9.18-18.83,20.5-18.83h72c11.32,0,20.5,8.43,20.5,18.83Z" transform="translate(0 10.19)"/><rect class="cls-1" x="218.32" y="119.4" width="24.67" height="88.17" rx="11.73"/><rect class="cls-3" x="192.34" y="229.87" width="79.12" height="117.33"/><path class="cls-1" d="M308.33,74s-4.4-6.24-24.51-6.66l-110.63.89c-17.14.13-31,12.53-33.89,29.25-2.57,15,5.8,30,19.24,36.69,10,5,21.81,3.07,32.65,2.82l23.46-.54,72.69-1.31s26,.52,33.32-25.19C320.66,110,327,89.52,308.33,74Zm-4.14,34.58c-6,21-27.25,20.6-27.25,20.6l-59.45,1.08-19.18.44c-8.87.2-18.49,1.77-26.7-2.31-11-5.45-17.84-17.77-15.74-30A28.33,28.33,0,0,1,183.59,74.5l90.48-.73c16.44.35,20,5.45,20,5.45C309.34,91.88,304.19,108.62,304.19,108.62Z" transform="translate(0 10.19)"/><polygon class="cls-3" points="183.51 103.13 281.13 103.13 297.66 0 160.68 0 178.31 79.62 183.51 103.13"/></svg>