<svg id="Capa_1" data-name="Capa 1" xmlns="http://www.w3.org/2000/svg" viewBox="0 0 384 382.23"><title>moon</title><path d="M.75,204.71v-31.5c1-.27.72-1.16.83-1.83,1-6.53,1.62-13.12,2.92-19.63A190.36,190.36,0,0,1,41.08,71.1a196.35,196.35,0,0,1,72.21-57.65A188.74,188.74,0,0,1,144.48,2a12.79,12.79,0,0,1,13.85,5.05c3.14,4.56,3.07,9.86-.29,14.67-1.43,2-3,4-4.51,6C137.27,49.57,129,74.38,126.91,101.28a141.33,141.33,0,0,0,10,64.17,143.62,143.62,0,0,0,112.67,89,141.22,141.22,0,0,0,86.1-13.82,155.37,155.37,0,0,0,27.2-17.78c5.75-4.6,11.47-4.95,16.64-1.77,2.7,1.66,3.58,4.52,5.28,6.84v6.75c-1.23.74-1.11,2.13-1.44,3.25-1.76,5.84-3.28,11.74-5.38,17.49-12.68,34.72-33.27,63.85-62.42,86.54-32.34,25.18-69,39.2-110.18,41.48-26.69,1.49-52.76-1.74-77.48-11.64C57.45,343.61,15.56,291.94,2.74,217,2,212.89,2.44,208.63.75,204.71Z" transform="translate(-0.75 -1.58)"/></svg>