<svg id="Capa_1" data-name="Capa 1" xmlns="http://www.w3.org/2000/svg" viewBox="0 0 48.23 48"><path d="M.77,26.51v-4c.13,0,.09-.15.1-.23.13-.82.21-1.65.37-2.47A24,24,0,0,1,5.84,9.73,24.67,24.67,0,0,1,14.9,2.49a23.55,23.55,0,0,1,3.92-1.43,1.6,1.6,0,0,1,1.74.63,1.53,1.53,0,0,1,0,1.84L20,4.29a17.38,17.38,0,0,0-3.35,9.23,17.76,17.76,0,0,0,1.26,8.06A18,18,0,0,0,32,32.76,17.66,17.66,0,0,0,42.83,31a19.69,19.69,0,0,0,3.42-2.23,1.7,1.7,0,0,1,2.09-.22c.34.21.45.57.66.86v.85c-.15.09-.14.26-.18.4-.22.74-.41,1.48-.68,2.2A23.78,23.78,0,0,1,40.3,43.75,24.24,24.24,0,0,1,26.47,49a22.51,22.51,0,0,1-9.73-1.47C7.89,44,2.63,37.47,1,28.06A6.69,6.69,0,0,0,.77,26.51Z" transform="translate(-0.77 -1)"/></svg>