<svg id="Capa_1" data-name="Capa 1" xmlns="http://www.w3.org/2000/svg" viewBox="0 0 30.6 18.38"><defs><style>.cls-1{fill:#18181a;}</style></defs><path class="cls-1" d="M24,18.7c0-.6,0-1.19,0-1.78s.27-.87.73-.88.77.32.77.9c0,1.18,0,2.37,0,3.56,0,.32.07.43.41.44a13.78,13.78,0,0,1,2.4.27c.31.06.4,0,.46-.32.17-.92.36-1.83.56-2.75.13-.61.46-.88.94-.79s.66.47.54,1.11c-.18.91-.37,1.83-.57,2.74-.06.27-.07.41.26.49a14.38,14.38,0,0,1,2.39.83c.27.13.37,0,.47-.21.26-.65.54-1.29.83-1.93a.8.8,0,0,1,1.07-.53c.42.19.54.61.31,1.15s-.55,1.29-.85,1.92c-.11.25-.12.4.16.54A15.5,15.5,0,0,1,37,24.82c.2.15.31.15.45-.07s.49-.71.75-1.05c.39-.54.82-.66,1.22-.37s.38.73,0,1.24-.54.76-.83,1.13c-.13.18-.13.29.05.44a11.13,11.13,0,0,1,.88.8c.56.53.56.9,0,1.45a20.37,20.37,0,0,1-10.24,5.53A21,21,0,0,1,9.93,28.48c-.71-.66-.7-1,0-1.63.32-.31.9-.62.9-.93s-.47-.76-.73-1.15a3.48,3.48,0,0,1-.28-.39A.72.72,0,0,1,10,23.33a.73.73,0,0,1,1,.16c.31.4.6.81.88,1.22.15.23.26.27.5.1a14,14,0,0,1,2.14-1.34c.32-.15.3-.31.17-.58-.3-.63-.57-1.28-.84-1.92a.78.78,0,0,1,.31-1.11c.42-.2.84,0,1.07.51s.58,1.27.84,1.92c.11.27.21.34.5.22.75-.29,1.51-.57,2.28-.79.35-.1.41-.24.34-.56-.2-.91-.38-1.82-.57-2.74-.12-.57.08-1,.52-1.06s.82.16.95.77c.2.91.4,1.82.57,2.74.06.31.14.42.48.34a13.91,13.91,0,0,1,2.4-.28c.3,0,.41-.09.4-.4C23.94,19.92,24,19.31,24,18.7Zm-1.82,14a6.18,6.18,0,0,1-2.8-3.55c-.51-1.73.06-3.85.72-4.41a1.62,1.62,0,0,0,1.64,1.47,1.59,1.59,0,0,0,1.54-1.32,1.53,1.53,0,0,0-.17-1A1.65,1.65,0,0,0,21.8,23c0-.21.27-.16.28-.34a1.73,1.73,0,0,0-.68,0,20,20,0,0,0-9.79,4.67c-.29.25-.31.37,0,.63a20.19,20.19,0,0,0,6.51,3.83A18.25,18.25,0,0,0,22.14,32.71Zm5.09.07,1.2-.21a19.55,19.55,0,0,0,9.44-4.65c.17-.15.3-.25,0-.48A20,20,0,0,0,27,22.54,5.75,5.75,0,0,1,27.23,32.78Z" transform="translate(-9.4 -16.04)"/></svg>