<svg id="Capa_1" data-name="Capa 1" xmlns="http://www.w3.org/2000/svg" viewBox="0 0 36.6 14.8"><defs><style>.cls-1{fill:#18181a;}</style></defs><path class="cls-1" d="M26,29.66c0,.71,0,1.42,0,2.13s-.35,1-.91,1-.88-.39-.89-1c0-1.41,0-2.83,0-4.25,0-.41-.1-.53-.52-.56-.94-.06-1.88-.18-2.82-.32-.39-.07-.51,0-.58.41-.21,1.16-.48,2.31-.72,3.47a.83.83,0,0,1-.65.71.85.85,0,0,1-.89-.24,1,1,0,0,1-.2-.9c.24-1.16.45-2.32.72-3.47.07-.35,0-.48-.35-.58a17.18,17.18,0,0,1-2.85-1c-.28-.12-.4-.07-.51.21-.33.8-.68,1.58-1,2.36-.28.62-.77.86-1.28.64s-.64-.72-.36-1.38.67-1.58,1-2.36c.14-.29.11-.44-.19-.59a17.65,17.65,0,0,1-2.62-1.63c-.29-.22-.42-.13-.59.12-.33.49-.66,1-1,1.42a.9.9,0,0,1-1.29.27.89.89,0,0,1-.17-1.31c.34-.52.71-1,1.09-1.52.18-.23.19-.38-.06-.57s-.68-.59-1-.9c-.6-.56-.69-1.07-.29-1.5s.94-.37,1.51.18a23.06,23.06,0,0,0,10.92,6c8.38,1.91,15.72-.17,22.05-5.93a4.14,4.14,0,0,1,.38-.35.85.85,0,0,1,1.22.08.81.81,0,0,1,0,1.21A10.16,10.16,0,0,1,42,20.6c-.31.25-.37.44-.1.76s.69.93,1,1.41a.92.92,0,0,1-.14,1.32.93.93,0,0,1-1.34-.28c-.43-.56-.79-1.5-1.3-1.59s-1.16.67-1.75,1.05c-.06,0-.12.06-.17.1-.41.31-1.14.39-1.23.83s.34.94.54,1.41.42.94.62,1.42a.86.86,0,0,1-.41,1.2.9.9,0,0,1-1.24-.47c-.38-.82-.73-1.65-1.07-2.48-.13-.3-.24-.38-.56-.23a15.63,15.63,0,0,1-2.79,1c-.41.11-.45.28-.38.63.25,1.11.48,2.23.71,3.34.13.67-.13,1.15-.67,1.25s-.95-.21-1.1-.9c-.24-1.13-.49-2.26-.71-3.4-.06-.3-.15-.39-.46-.33a18.89,18.89,0,0,1-3,.35c-.33,0-.45.1-.44.45C26,28.16,26,28.91,26,29.66Z" transform="translate(-6.84 -18)"/></svg>